<svg id="Lines" xmlns="http://www.w3.org/2000/svg" viewBox="0 0 600 150"><defs><style>.cls-1{fill:#e4d1ba;}.cls-2,.cls-4{opacity:0.4;}.cls-3,.cls-4{fill:#3c2415;}.cls-5{fill:none;stroke:#3c2415;stroke-linecap:round;stroke-miterlimit:10;stroke-width:4px;}</style></defs><title>header-banner</title><path class="cls-1" d="M593.74,11.56a9.86,9.86,0,0,0-9.69-7.87c-7.31.18-10,3.91-10,7.55,0,0.69,0,5.47-.08,12.72h0c-8.8.22-21.61-.31-30.46-1.07-239-20.25-512.54-3.66-528.76.65-6.5,1.73-10,7.13-9.95,12.17,0,0.13.92,102.83,0.92,103h0c-0.25,4.57,3.67,8.83,12.49,8.62,8.32-.2,10.77-3.19,10.43-6.11h0l-0.75-13.55-1.44-.24c55.42-4.45,301.09-10.25,518.14,8.14,11.08,0.94,28.35,1.54,36.21.75,10-1,13.95-5.48,14.22-9.93l0,0L593.9,13.62A8.52,8.52,0,0,0,593.74,11.56ZM5.91,137.24l-0.23,1.45A8,8,0,0,1,5.91,137.24Zm582.33-20.43h0Z"/><g class="cls-2"><path class="cls-3" d="M15,128.7c-9,1.94-9.34,9.8-9.34,9.83h0c-0.25,4.66,3.67,9,12.49,8.78,8.32-.2,10.77-3.25,10.43-6.22h0l-0.11-2-4-3.23-5.23-.13-2.14,1-1.94,2.24Zm-9.34,9.82a8.25,8.25,0,0,1,.23-1.48Z"/></g><path class="cls-4" d="M580.38,116.39l-2.38.93-3.07,2.57,0.49,3.33a12.05,12.05,0,0,0,2.86,2.95,5.3,5.3,0,0,0,3.77.51c7.12-1.16,6.76-2.57,6.76-2.57l-0.57-7.88-4-.58Zm7.86-.15h0Z"/><path class="cls-5" d="M588.23,116.8c0,1.22.57,7.73,0.57,7.73a13.68,13.68,0,0,1-7.48,2.58c-7.13.4-10.79-10.42,3.82-10.77,10.61-.26,17.09,17.8-4.38,20-7.86.79-25.13,0.19-36.21-.75-239-20.25-512.68-11.17-528.9-6.86-13.34,3.55-14.1,19,2.52,18.61s9.82-11.93,4.11-11.75c-3.64.12-5.59,0.94-7.07,3.49"/><path class="cls-5" d="M593.9,13.62a8.52,8.52,0,0,0-.16-2.06,9.86,9.86,0,0,0-9.69-7.87c-7.31.18-10,3.91-10,7.55,0,3.09-.82,88.51,1.12,111.51"/><path class="cls-5" d="M5.68,138.69c0-.13-0.92-102.83-0.92-103,0-5,3.45-10.44,9.95-12.17,16.22-4.31,289.76-20.91,528.76-.65,8.85,0.75,21.66,1.28,30.46,1.07"/><line class="cls-5" x1="593.9" y1="13.62" x2="595.01" y2="126.42"/><line class="cls-5" x1="15.21" y1="139.06" x2="15.02" y2="129.04"/><line class="cls-5" x1="27.85" y1="127.65" x2="28.6" y2="141.2"/></svg>