<?xml version="1.0" encoding="utf-8"?>
<!-- Generator: Adobe Illustrator 19.2.1, SVG Export Plug-In . SVG Version: 6.00 Build 0)  -->
<svg version="1.1" id="Lines" xmlns="http://www.w3.org/2000/svg" xmlns:xlink="http://www.w3.org/1999/xlink" x="0px" y="0px"
	 viewBox="0 0 956 239" style="enable-background:new 0 0 956 239;" xml:space="preserve">
<style type="text/css">
	.st0{fill:#E4D1BA;}
	.st1{opacity:0.4;}
	.st2{fill:#754C29;}
	.st3{opacity:0.4;fill:#754C29;enable-background:new    ;}
	.st4{fill:#8B5E3C;}
	.st5{fill:none;}
	.st6{opacity:0.3;enable-background:new    ;}
	.st7{enable-background:new    ;}
</style>
<title>header-banner</title>
<path class="st0" d="M947.7,17.5c-1.4-7.3-8-12.6-15.5-12.6c-11.6,0.3-15.9,6.2-15.9,12.1c0,1.1,0,8.8-0.2,20.2l0,0
	c-14,0.3-34.4-0.5-48.6-1.8C486.8,3.2,50.9,29.6,25,36.5C14.6,39.2,9,47.8,9.2,55.9c0,0.2,1.4,163.8,1.4,164.2l0,0
	c-0.3,7.3,5.9,14,19.9,13.7c13.2-0.3,17.2-5.1,16.6-9.7l0,0l-1.3-21.7l-2.2-0.3c88.3-7,479.9-16.3,825.7,12.9
	c17.7,1.4,45.1,2.4,57.7,1.3c15.9-1.6,22.3-8.8,22.6-15.8l0,0l-1.8-179.8C948.1,19.6,948.1,18.5,947.7,17.5z M10.9,217.7l-0.3,2.2
	C10.6,219.3,10.8,218.5,10.9,217.7z M939,185.2L939,185.2z"/>
<g class="st1">
	<path class="st2" d="M25.4,204.2c-14.3,3-14.8,15.6-14.8,15.6l0,0c-0.3,7.5,5.9,14.3,19.9,14c13.2-0.3,17.2-5.1,16.6-9.9l0,0
		l-0.2-3.2l-6.4-5.1l-8.3-0.2l-3.3,1.6l-3,3.5L25.4,204.2z M10.6,219.8c0-0.8,0.2-1.6,0.3-2.4L10.6,219.8z"/>
</g>
<path class="st3" d="M926.5,184.6l-3.8,1.4l-4.9,4.1l0.8,5.3c1.3,1.8,2.7,3.3,4.6,4.6c1.9,1,4,1.3,6.1,0.8
	c11.3-1.9,10.8-4.1,10.8-4.1l-1-12.6l-6.4-1L926.5,184.6z M939,184.2L939,184.2z"/>
<path class="st4" d="M29.4,236.8c-14.6,0-20.9-7.2-21.9-14.1c-1.2-8.1,4.7-18.2,18.1-21.8c26.8-7.1,467.7-20.9,844,10.9
	c17.8,1.6,45,2.5,57.1,1.3c12.9-1.3,20.3-6.6,19.8-14.2c-0.2-2.9-1.6-5.9-4-8.1c0.2,2.2,0.4,4.6,0.6,6.3l0.2,1.8l-1.5,1.1
	c-4,2.9-8.8,4.6-13.7,4.8c-4.7,0.3-9.1-1.9-11.6-5.7c-2-3.2-2.2-6.9-0.6-10.1c1.8-3.4,6.4-7.5,18-7.8c9.6-0.3,18.3,7.6,18.9,17.3
	c0.6,8.8-5.8,18.9-25.5,20.9c-12.9,1.3-40.3,0.4-58.3-1.3C493.3,186.4,53.9,200,27.2,207.1c-9.7,2.6-14.2,9.6-13.4,14.7
	c0.8,5.6,7.1,8.8,16.5,8.6c8.4-0.2,13.6-2.4,13.5-5.8c-0.1-3-3.8-6.7-6.8-6.7c0,0,0,0-0.1,0c-5.4,0.2-7.1,1.4-8.6,4
	c-0.9,1.5-2.8,2-4.4,1.2c-1.5-0.9-2-2.8-1.2-4.4c3.3-5.7,8-7,14-7.2c0.1,0,0.1,0,0.2,0c6.6,0,13.1,6.3,13.2,12.9
	c0.1,3.5-1.7,11.8-19.8,12.3C30.1,236.8,29.7,236.8,29.4,236.8z M934.5,187.6c-0.1,0-0.2,0-0.3,0c-6.5,0.2-11.1,1.8-12.5,4.4
	c-0.8,1.5-0.2,3,0.3,3.7c0.9,1.4,3,2.9,5.9,2.8c3.1-0.1,6.1-1,8.8-2.6c-0.2-2.2-0.5-5.7-0.7-8.2C935.4,187.6,935,187.6,934.5,187.6z
	"/>
<path class="st4" d="M918.1,197.8c-1.6,0-3-1.3-3.2-2.9c-1.8-21.5-2.4-83.1-1.8-173.4c0-2.5,0-4.1,0-4.5c0-7.1,5-14.9,19-15.3
	c0,0,0,0,0,0c9.1,0,16.9,6.3,18.6,15c0.4,1.5,0.4,2.9,0.4,4.1c0,1.8-1.4,3.2-3.2,3.2c-1.8,0-3.2-1.4-3.2-3.2c0-1,0-1.8-0.2-2.5
	l-0.1-0.3c-1.1-5.8-6.3-10-12.3-10c-8.1,0.2-12.7,3.5-12.7,8.9c0,0.5,0,2,0,4.6c-0.6,90.1,0,151.5,1.8,172.9
	c0.1,1.8-1.2,3.3-2.9,3.4C918.3,197.8,918.2,197.8,918.1,197.8z"/>
<path class="st4" d="M10.6,223.3c-1.8,0-3.2-1.4-3.2-3.2c0-0.3-0.2-28.5-0.5-61.3C6.4,98.7,6,56.1,6,55.9c0-10.3,7.4-19.5,18.1-22.5
	C50,26.6,489.3,0.2,868,32.4c14.5,1.3,34.8,2,48.3,1.7c1.8-0.1,3.2,1.4,3.3,3.1c0,1.8-1.4,3.2-3.1,3.3c-13.7,0.3-34.3-0.4-49-1.8
	c-378-32.1-815.9-6-841.7,0.9c-9.2,2.6-13.4,10.3-13.4,16.4c0,0.6,0.5,57.2,0.9,102.8c0.4,48.2,0.5,61.3,0.5,61.4
	C13.8,221.9,12.4,223.3,10.6,223.3C10.6,223.3,10.6,223.3,10.6,223.3z"/>
<path class="st4" d="M949.8,203.7c-1.7,0-3.2-1.4-3.2-3.2l-1.8-179.8c0-1.8,1.4-3.2,3.2-3.2c0,0,0,0,0,0c1.7,0,3.2,1.4,3.2,3.2
	l1.8,179.8C953,202.2,951.6,203.7,949.8,203.7C949.8,203.7,949.8,203.7,949.8,203.7z"/>
<path class="st4" d="M25.8,223.9c-1.7,0-3.2-1.4-3.2-3.1l-0.3-16.1c0-1.8,1.4-3.2,3.1-3.3c0,0,0,0,0.1,0c1.7,0,3.2,1.4,3.2,3.1
	l0.3,16.1C29,222.4,27.6,223.9,25.8,223.9C25.8,223.9,25.8,223.9,25.8,223.9z"/>
<path class="st4" d="M47.1,227.3c-1.7,0-3.1-1.3-3.2-3l-1.1-21.5c-0.1-1.8,1.3-3.3,3-3.3c1.8-0.1,3.3,1.3,3.3,3l1.1,21.5
	c0.1,1.8-1.3,3.3-3,3.3C47.2,227.3,47.2,227.3,47.1,227.3z"/>
<rect x="10.9" y="71.2" class="st5" width="918" height="111.6"/>
<g class="st6">
	<path class="st4" d="M110.3,139.3V80.8c0-0.5,3.9-2.2,11.6-5c7.8-2.9,12.2-4.3,13.4-4.3c1.2,0,2.9,1.4,5.3,4.2
		c2.3,2.8,3.5,5.3,3.5,7.5v26.7h5v2.4l-5,2.6v19.8c0,3.7,1.6,6,4.9,6.6v2.2l-11.1,6.2c-1.5-0.6-2.9-1.6-4.2-3
		c-1.3-1.4-1.9-2.7-1.9-3.9v-27.9h-9.2V134c0,2.5,0.3,4.3,0.8,5.4c0.5,1.1,1.7,1.6,3.4,1.6v3.2l-20.9,8.8l-1.6-3.3
		c1.5,0,2.9-0.9,4.3-2.7C109.7,145.4,110.3,142.8,110.3,139.3z M126.6,80.9c-1.4,0-2.7,0.5-4,1.5v30.1l6-2.7h3.2V88.4
		C131.8,83.4,130,80.9,126.6,80.9z"/>
	<path class="st4" d="M154.3,142.8v-34.6c0-2.2-0.5-4.2-1.4-5.8c-1-1.6-2.1-2.4-3.6-2.4v-2.2c0.5-0.1,4.2-2.1,11.1-6.2
		c0.5,0.1,1.1,0.3,1.7,0.6c0.7,0.2,1.6,0.9,2.7,2c1.1,1.1,1.7,2.3,1.7,3.8c0.4-0.2,1.6-0.8,3.5-1.9c5-2.9,8-4.3,9-4.3
		c2.2,0,4.2,1.4,6.1,4.3c1.9,2.9,2.9,5.5,2.9,7.9v30.9c0,3.7,1.7,6,5,6.6v2.2l-11.1,6.2c-1.5-0.6-2.9-1.6-4.2-3
		c-1.3-1.4-1.9-2.7-1.9-3.9v-29.6c0-3.8-0.4-6.7-1.3-8.7c-0.9-2-2.4-3-4.5-3l-3.4,0.6v32.5c0,4.1,1.4,6.5,4.2,7v2.2l-10.3,5.8
		c-1.5-0.6-2.9-1.6-4.2-3C154.9,145.3,154.3,144,154.3,142.8z"/>
	<path class="st4" d="M217.3,71.2c1.8,0,4.7,4.5,8.7,13.4c3.9,8.9,5.9,15.1,5.9,18.5v31.1c0,1.6,0.4,3.1,1.3,4.6
		c0.8,1.5,2.1,2.3,3.6,2.6v2.2c-0.5,0.1-4.2,2.1-11.1,6.2c-1.6-0.7-3-1.7-4.2-3c-1.3-1.3-1.9-2.6-1.9-3.7
		c-7.3,4.5-11.5,6.7-12.7,6.7c-0.5,0-1.4-0.5-2.7-1.6c-1.3-1.1-2.7-2.6-4-4.6c-1.3-2-2-4.1-2-6.2V101c0-0.7,5.7-3,17.2-7
		c-2.4-5.4-4.4-9.1-5.9-11.3c-1.5-2.2-3-3.3-4.4-3.3h-3.4v-3.1C209.3,72.9,214.5,71.2,217.3,71.2z M215.6,140.3c1.3,0,2.6-0.5,4-1.6
		v-35.5c0-0.4-0.3-1.3-0.9-2.6c-0.6-1.3-1-2-1.3-2c-2,0-4,0.6-6,1.8l-1,0.6v31.7C210.4,137.8,212.1,140.3,215.6,140.3z"/>
	<path class="st4" d="M261.4,139.3V80.8c0-0.5,3.9-2.2,11.6-5c7.8-2.9,12.2-4.3,13.4-4.3c1.2,0,2.9,1.4,5.3,4.2
		c2.3,2.8,3.5,5.3,3.5,7.5v26.7h5v2.4l-5,2.6v19.8c0,3.7,1.6,6,4.9,6.6v2.2l-11.1,6.2c-1.5-0.6-2.9-1.6-4.2-3
		c-1.3-1.4-1.9-2.7-1.9-3.9v-27.9h-9.2V134c0,2.5,0.3,4.3,0.8,5.4c0.5,1.1,1.7,1.6,3.4,1.6v3.2l-20.9,8.8l-1.6-3.3
		c1.5,0,2.9-0.9,4.3-2.7C260.8,145.4,261.4,142.8,261.4,139.3z M277.6,80.9c-1.4,0-2.7,0.5-4,1.5v30.1l6-2.7h3.2V88.4
		C282.8,83.4,281.1,80.9,277.6,80.9z"/>
	<path class="st4" d="M317.6,78.2v56.4c0,4.1,1.4,6.5,4.2,7v2.2l-10.3,5.8c-1.5-0.6-2.9-1.6-4.2-3c-1.3-1.4-1.9-2.7-1.9-3.9V86.4
		c0-4.1-1.4-6.5-4.2-7v-2.2l10.3-5.8c1.5,0.6,2.9,1.6,4.2,3C316.9,75.7,317.6,77,317.6,78.2z"/>
	<path class="st4" d="M332.5,127.4c-1.7,0-3.2-1.3-4.4-3.9c-1.2-2.6-1.8-5.7-1.8-9.5v-11c0-1.3,3.6-3.5,10.7-6.7s11.3-4.7,12.3-4.7
		c0.6,0,1.2,0.4,1.6,1.1c0.5,0.7,0.8,1.3,1.1,1.7c0.3,0.4,0.7,1.2,1.3,2.2c0.6,1.1,1.1,1.9,1.5,2.6c0.9,1.6,2,2.4,3.4,2.4v2
		c-1.1,0.5-2.5,1.2-4.3,2.1c-4.4,2.4-6.7,3.6-7,3.6c-1,0-2.1-1.7-3.3-5c-1.2-3.3-2.3-5-3.2-5c-1.2,0-1.8,1-1.8,3.1v12.5
		c0,2.7,0.6,4.1,1.8,4.1c0.3,0,2.4-0.9,6.3-2.7c3.9-1.8,6.3-2.7,7.1-2.7c1.6,0,3.1,1.3,4.3,3.9c1.3,2.6,1.9,6,1.9,10v11.5
		c0,1.3-3.9,3.5-11.7,6.7c-7.8,3.2-12.3,4.7-13.4,4.7c-0.5,0-0.9-0.4-1.4-1.3c-0.4-0.8-1.1-2.2-1.8-3.9c-0.8-1.8-1.5-3.3-2.3-4.5
		c-0.9-1.6-2-2.4-3.4-2.4v-2c1.1-0.5,2.6-1.2,4.4-2.1c4.3-2.4,6.6-3.6,6.9-3.6c1,0,2.3,2,3.8,6c1.5,4,2.8,6,3.7,6
		c0.7,0,1.3-0.3,1.9-0.8c0.6-0.5,0.9-1.3,0.9-2.2v-12.7c0-3.1-0.9-4.6-2.6-4.6c-0.5,0-2.7,0.8-6.4,2.4
		C335.1,126.6,333,127.4,332.5,127.4z"/>
	<path class="st4" d="M369.1,134.8V101c0-0.5,3.9-2.2,11.6-5c7.8-2.9,12.2-4.3,13.4-4.3c1.2,0,2.9,1.4,5.3,4.2
		c2.3,2.8,3.5,5.3,3.5,7.5v36.9c0,0.5-3.7,2.3-11.2,5.2s-12,4.3-13.7,4.3c-1.7,0-3.6-1.5-5.7-4.4
		C370.2,142.4,369.1,138.9,369.1,134.8z M386.5,140.3c1.3,0,2.6-0.5,4-1.6v-30.1c0-5-1.7-7.5-5.2-7.5c-1.4,0-2.7,0.5-4,1.5v30.2
		C381.3,137.8,383.1,140.3,386.5,140.3z"/>
	<path class="st4" d="M432.4,139.3V87.8c0-2.2-0.5-4.2-1.4-5.8c-1-1.6-2.1-2.4-3.6-2.4v-2.2c0.5-0.1,4.2-2.1,11.1-6.2
		c0.5,0.1,1.1,0.3,1.7,0.6c0.7,0.2,1.6,0.9,2.7,2c1.1,1.1,1.7,2.3,1.7,3.8c0.4-0.2,1.6-0.8,3.5-1.9c5-2.9,8.1-4.3,9.3-4.3
		c1.2,0,2.5,0.6,4,1.8c1.5,1.2,2.6,2.7,3.3,4.4c0.1-0.1,1.5-0.8,4.2-2.1c5.3-2.7,8.5-4.1,9.6-4.1c2.2,0,4.2,1.4,6.1,4.3
		c1.9,2.9,2.9,5.5,2.9,7.9v51.3c0,3.7,1.7,6,5,6.6v2.2l-11.1,6.2c-1.5-0.6-2.9-1.6-4.2-3c-1.3-1.4-1.9-2.7-1.9-3.9v-50
		c0-4.1-0.7-6.9-2-8.5c-1.3-1.6-3.7-2.5-7.2-2.6v52.9c0,3.7,1.7,6,5,6.6v2.2l-11.1,6.2c-1.5-0.6-2.9-1.6-4.2-3
		c-1.3-1.4-1.9-2.7-1.9-3.9v-50c0-4.3-0.6-7.2-1.9-8.8c-1.3-1.6-3.7-2.3-7.3-2.3V134c0,2.5,0.3,4.3,0.8,5.4c0.5,1.1,1.7,1.6,3.4,1.6
		v3.2L428,153l-1.6-3.3c1.5,0,2.9-0.9,4.3-2.7C431.8,145.4,432.4,142.8,432.4,139.3z"/>
	<path class="st4" d="M511.5,138.2c1.1,1.1,2.2,1.7,3.5,1.7s2.7-0.5,4.1-1.5v-31.7c0-4.1-1.4-6.5-4.2-7v-2.2l10.3-5.8
		c1.5,0.6,2.9,1.6,4.2,3c1.3,1.4,1.9,2.7,1.9,3.9V133c0,2.2,0.5,4.2,1.4,5.8c1,1.6,2.1,2.4,3.6,2.4v2.2c-0.5,0.1-4.2,2.1-11.1,6.2
		c-1.6-0.7-3-1.7-4.2-3c-1.3-1.3-1.9-2.6-1.9-3.8l-12.7,6.8c-0.2-0.1-0.5-0.3-0.9-0.6c-0.4-0.2-1.1-0.7-2.1-1.5
		c-1-0.8-1.9-1.6-2.6-2.5c-2-2.2-3.1-4.8-3.1-7.6v-30.9c0-3.7-1.7-5.9-5-6.6v-2.2l11.1-6.2c1.5,0.6,2.9,1.6,4.2,3
		c1.3,1.4,1.9,2.7,1.9,3.9v35.4C510,135.6,510.5,137,511.5,138.2z"/>
	<path class="st4" d="M555.7,101.5c-0.7,0-1.3,0.3-1.8,1v28.2c0,5.2,2.2,8.5,6.7,9.7c2.3,0.5,5.1,0.8,8.3,0.8v3
		c-11.2,3.7-17.1,5.6-17.9,5.6c-2,0-4.1-1.4-6.2-4.3c-2.1-2.9-3.2-6.3-3.2-10.1V101c0-0.5,3.9-2.2,11.7-5c7.8-2.9,12.3-4.3,13.4-4.3
		c0.4,0,0.9,1,1.4,3c0.5,2,1.2,4.4,1.9,7.1c0.7,2.8,1.5,4.8,2.2,6.2c0.8,1.3,2.3,2,4.4,2v2c-1.5,0.7-4,1.9-7.6,3.6
		c-3.6,1.7-5.5,2.6-5.8,2.6c-1,0-2.3-2.8-3.9-8.3C557.9,104.3,556.6,101.5,555.7,101.5z"/>
	<path class="st4" d="M582.8,142.8V92.3c0-1.8-0.3-3.1-0.9-3.9c-0.6-0.8-1.7-1.2-3.2-1.2v-2.9c8.8-4.6,16.7-9,23.7-13.1l1.6,3.3
		c-0.7,0.3-1.6,1-2.9,2c-1.2,1-2.2,2-3.1,3c-2,2.6-3.1,5.5-3.1,8.8V97c7-3.6,11.1-5.4,12.2-5.4c2.2,0,4.2,1.4,6.2,4.1
		c2,2.7,3,5.7,3,9v30c0,3.7,1.7,6,5,6.6v2.2l-11.1,6.2c-1.5-0.6-2.9-1.6-4.2-3c-1.3-1.4-1.9-2.7-1.9-3.9v-29.6
		c0-6.7-1.2-10.4-3.7-11.3c-1.2-0.4-3-0.6-5.5-0.6v33.4c0,4.1,1.4,6.5,4.2,7v2.2l-10.3,5.8c-1.5-0.6-2.9-1.6-4.2-3
		C583.4,145.3,582.8,144,582.8,142.8z"/>
	<path class="st4" d="M660.1,81.1c-0.7,0-1.3,0.3-1.8,1v42.1c0,2.9,0.2,5.2,0.5,6.9c0.3,1.7,1.1,3.5,2.2,5.2
		c2.2,3.3,7.4,4.9,15.4,4.9v3c-0.3,0-2.9,0.9-7.5,2.8c-4.7,1.9-7.5,2.8-8.6,2.8c-3.4,0-6.6-2-9.7-5.9c-3.1-3.9-4.6-8-4.6-12.4V80.6
		c0-0.5,3.9-2.2,11.7-5c7.8-2.9,12.3-4.3,13.4-4.3c0.4,0,0.9,1,1.4,3c0.5,2,1.2,4.4,1.9,7.1c0.7,2.8,1.5,4.8,2.2,6.2
		c0.8,1.3,2.3,2,4.4,2v2c-1.5,0.7-4,1.9-7.6,3.6c-3.6,1.7-5.5,2.6-5.8,2.6c-1,0-2.3-2.8-3.9-8.3C662.3,83.9,661,81.1,660.1,81.1z"/>
	<path class="st4" d="M718.8,105.1v28.9c0,2.5,0.4,4.3,1.2,5.3c0.8,1,2.1,1.7,3.8,2.1v2.2l-11.1,6.2c-1.5-0.6-2.9-1.6-4.2-3
		c-1.3-1.4-1.9-2.7-1.9-3.8l-12.7,6.8c-0.2-0.1-0.5-0.3-0.9-0.6c-0.4-0.2-1.1-0.7-2.1-1.5c-1-0.8-1.9-1.6-2.6-2.5
		c-2-2.2-3.1-4.8-3.1-7.6v-16.7c0-1.1,1.8-2.5,5.3-4.2c3.5-1.7,7.1-3.1,10.6-4.2l5.4-1.7c0-3.9-1-6.6-3.1-8.1c-2-1.5-6-2.3-11.8-2.3
		v-3.1c10.5-3.7,16.5-5.6,17.7-5.6c2.2,0,4.4,1.5,6.4,4.4C717.8,98.9,718.8,101.9,718.8,105.1z M699,138.2c1.1,1.1,2.2,1.7,3.5,1.7
		s2.7-0.5,4.1-1.5v-23.1c-1.7,0.6-3,1.1-3.8,1.5c-0.9,0.4-1.8,1.1-2.7,1.9c-1.8,1.6-2.7,4.5-2.7,8.5v6.6
		C697.4,135.6,698,137,699,138.2z"/>
	<path class="st4" d="M741.3,81v12.1h5.2l-1,5h-4.2v36.5c0,4.1,1.4,6.5,4.2,7v2.2l-10.3,5.8c-1.5-0.6-2.9-1.6-4.2-3
		c-1.3-1.4-1.9-2.7-1.9-3.9V98.2h-4.2l1-4.3c2,0,4.5-1.4,7.4-4.1c2.9-2.8,4.6-5.7,5.2-8.8H741.3z"/>
	<path class="st4" d="M763.7,81v12.1h5.2l-1,5h-4.2v36.5c0,4.1,1.4,6.5,4.2,7v2.2l-10.3,5.8c-1.5-0.6-2.9-1.6-4.2-3
		c-1.3-1.4-1.9-2.7-1.9-3.9V98.2h-4.2l1-4.3c2,0,4.5-1.4,7.4-4.1c2.9-2.8,4.6-5.7,5.2-8.8H763.7z"/>
	<path class="st4" d="M786.2,78.2v56.4c0,4.1,1.4,6.5,4.2,7v2.2l-10.3,5.8c-1.5-0.6-2.9-1.6-4.2-3c-1.3-1.4-1.9-2.7-1.9-3.9V86.4
		c0-4.1-1.4-6.5-4.2-7v-2.2l10.3-5.8c1.5,0.6,2.9,1.6,4.2,3C785.5,75.7,786.2,77,786.2,78.2z"/>
	<path class="st4" d="M821.4,91.6c0.3,0,1.2,0.5,2.6,1.6c1.4,1.1,2.7,2.5,4.1,4.4c1.4,1.9,2,3.7,2,5.5v17.1c0,1.2-1.8,2.7-5.4,4.5
		c-3.6,1.8-7.1,3.2-10.5,4.3c-3.4,1.1-5.2,1.7-5.5,1.7c0,5.2,2.3,8.5,6.8,9.7c2.2,0.5,4.9,0.8,8.1,0.8v3
		c-11.2,3.7-17.1,5.6-17.9,5.6c-2,0-4.1-1.4-6.2-4.3c-2.1-2.9-3.2-6.3-3.2-10.1V101c0-0.5,3.9-2.2,11.6-5
		C815.7,93,820.2,91.6,821.4,91.6z M816.5,103c-0.9-1.3-2-2-3.4-2c-1.4,0-2.9,0.5-4.5,1.5v23.6c6.1-1.7,9.2-5.4,9.2-11v-7.2
		C817.8,105.9,817.3,104.3,816.5,103z"/>
</g>
<rect x="7.9" y="68.1" class="st5" width="918" height="111.6"/>
<g class="st7">
	<path class="st4" d="M107.3,136.1V77.6c0-0.5,3.9-2.2,11.6-5c7.8-2.9,12.2-4.3,13.4-4.3c1.2,0,2.9,1.4,5.3,4.2
		c2.3,2.8,3.5,5.3,3.5,7.5v26.7h5v2.4l-5,2.6v19.8c0,3.7,1.6,6,4.9,6.6v2.2l-11.1,6.2c-1.5-0.6-2.9-1.6-4.2-3
		c-1.3-1.4-1.9-2.7-1.9-3.9v-27.9h-9.2v19.2c0,2.5,0.3,4.3,0.8,5.4c0.5,1.1,1.7,1.6,3.4,1.6v3.2l-20.9,8.8l-1.6-3.3
		c1.5,0,2.9-0.9,4.3-2.7C106.7,142.2,107.3,139.6,107.3,136.1z M123.5,77.7c-1.4,0-2.7,0.5-4,1.5v30.1l6-2.7h3.2V85.2
		C128.7,80.2,127,77.7,123.5,77.7z"/>
	<path class="st4" d="M151.3,139.6V105c0-2.2-0.5-4.2-1.4-5.8c-1-1.6-2.1-2.4-3.6-2.4v-2.2c0.5-0.1,4.2-2.1,11.1-6.2
		c0.5,0.1,1.1,0.3,1.7,0.6c0.7,0.2,1.6,0.9,2.7,2c1.1,1.1,1.7,2.3,1.7,3.8c0.4-0.2,1.6-0.8,3.5-1.9c5-2.9,8-4.3,9-4.3
		c2.2,0,4.2,1.4,6.1,4.3c1.9,2.9,2.9,5.5,2.9,7.9v30.9c0,3.7,1.7,6,5,6.6v2.2l-11.1,6.2c-1.5-0.6-2.9-1.6-4.2-3
		c-1.3-1.4-1.9-2.7-1.9-3.9V110c0-3.8-0.4-6.7-1.3-8.7c-0.9-2-2.4-3-4.5-3l-3.4,0.6v32.5c0,4.1,1.4,6.5,4.2,7v2.2l-10.3,5.8
		c-1.5-0.6-2.9-1.6-4.2-3C151.9,142.1,151.3,140.8,151.3,139.6z"/>
	<path class="st4" d="M214.3,68c1.8,0,4.7,4.5,8.7,13.4c3.9,8.9,5.9,15.1,5.9,18.5v31.1c0,1.6,0.4,3.1,1.3,4.6
		c0.8,1.5,2.1,2.3,3.6,2.6v2.2c-0.5,0.1-4.2,2.1-11.1,6.2c-1.6-0.7-3-1.7-4.2-3c-1.3-1.3-1.9-2.6-1.9-3.7
		c-7.3,4.5-11.5,6.7-12.7,6.7c-0.5,0-1.4-0.5-2.7-1.6c-1.3-1.1-2.7-2.6-4-4.6c-1.3-2-2-4.1-2-6.2V97.8c0-0.7,5.7-3,17.2-7
		c-2.4-5.4-4.4-9.1-5.9-11.3c-1.5-2.2-3-3.3-4.4-3.3h-3.4v-3.1C206.2,69.7,211.4,68,214.3,68z M212.6,137.2c1.3,0,2.6-0.5,4-1.6V100
		c0-0.4-0.3-1.3-0.9-2.6c-0.6-1.3-1-2-1.3-2c-2,0-4,0.6-6,1.8l-1,0.6v31.7C207.3,134.6,209.1,137.2,212.6,137.2z"/>
	<path class="st4" d="M258.3,136.1V77.6c0-0.5,3.9-2.2,11.6-5c7.8-2.9,12.2-4.3,13.4-4.3c1.2,0,2.9,1.4,5.3,4.2
		c2.3,2.8,3.5,5.3,3.5,7.5v26.7h5v2.4l-5,2.6v19.8c0,3.7,1.6,6,4.9,6.6v2.2l-11.1,6.2c-1.5-0.6-2.9-1.6-4.2-3
		c-1.3-1.4-1.9-2.7-1.9-3.9v-27.9h-9.2v19.2c0,2.5,0.3,4.3,0.8,5.4c0.5,1.1,1.7,1.6,3.4,1.6v3.2l-20.9,8.8l-1.6-3.3
		c1.5,0,2.9-0.9,4.3-2.7C257.7,142.2,258.3,139.6,258.3,136.1z M274.6,77.7c-1.4,0-2.7,0.5-4,1.5v30.1l6-2.7h3.2V85.2
		C279.8,80.2,278,77.7,274.6,77.7z"/>
	<path class="st4" d="M314.5,75v56.4c0,4.1,1.4,6.5,4.2,7v2.2l-10.3,5.8c-1.5-0.6-2.9-1.6-4.2-3c-1.3-1.4-1.9-2.7-1.9-3.9V83.2
		c0-4.1-1.4-6.5-4.2-7v-2.2l10.3-5.8c1.5,0.6,2.9,1.6,4.2,3C313.9,72.5,314.5,73.8,314.5,75z"/>
	<path class="st4" d="M329.4,124.2c-1.7,0-3.2-1.3-4.4-3.9c-1.2-2.6-1.8-5.7-1.8-9.5v-11c0-1.3,3.6-3.5,10.7-6.7
		c7.1-3.2,11.3-4.7,12.3-4.7c0.6,0,1.2,0.4,1.6,1.1c0.5,0.7,0.8,1.3,1.1,1.7c0.3,0.4,0.7,1.2,1.3,2.2c0.6,1.1,1.1,1.9,1.5,2.6
		c0.9,1.6,2,2.4,3.4,2.4v2c-1.1,0.5-2.5,1.2-4.3,2.1c-4.4,2.4-6.7,3.6-7,3.6c-1,0-2.1-1.7-3.3-5c-1.2-3.3-2.3-5-3.2-5
		c-1.2,0-1.8,1-1.8,3.1v12.5c0,2.7,0.6,4.1,1.8,4.1c0.3,0,2.4-0.9,6.3-2.7c3.9-1.8,6.3-2.7,7.1-2.7c1.6,0,3.1,1.3,4.3,3.9
		c1.3,2.6,1.9,6,1.9,10v11.5c0,1.3-3.9,3.5-11.7,6.7c-7.8,3.2-12.3,4.7-13.4,4.7c-0.5,0-0.9-0.4-1.4-1.3c-0.4-0.8-1.1-2.2-1.8-3.9
		c-0.8-1.8-1.5-3.3-2.3-4.5c-0.9-1.6-2-2.4-3.4-2.4v-2c1.1-0.5,2.6-1.2,4.4-2.1c4.3-2.4,6.6-3.6,6.9-3.6c1,0,2.3,2,3.8,6
		c1.5,4,2.8,6,3.7,6c0.7,0,1.3-0.3,1.9-0.8c0.6-0.5,0.9-1.3,0.9-2.2v-12.7c0-3.1-0.9-4.6-2.6-4.6c-0.5,0-2.7,0.8-6.4,2.4
		C332,123.4,329.9,124.2,329.4,124.2z"/>
	<path class="st4" d="M366.1,131.7V97.8c0-0.5,3.9-2.2,11.6-5c7.8-2.9,12.2-4.3,13.4-4.3c1.2,0,2.9,1.4,5.3,4.2
		c2.3,2.8,3.5,5.3,3.5,7.5v36.9c0,0.5-3.7,2.3-11.2,5.2c-7.4,2.9-12,4.3-13.7,4.3c-1.7,0-3.6-1.5-5.7-4.4
		C367.1,139.2,366.1,135.7,366.1,131.7z M383.5,137.2c1.3,0,2.6-0.5,4-1.6v-30.1c0-5-1.7-7.5-5.2-7.5c-1.4,0-2.7,0.5-4,1.5v30.2
		C378.3,134.6,380,137.2,383.5,137.2z"/>
	<path class="st4" d="M429.4,136.1V84.6c0-2.2-0.5-4.2-1.4-5.8c-1-1.6-2.1-2.4-3.6-2.4v-2.2c0.5-0.1,4.2-2.1,11.1-6.2
		c0.5,0.1,1.1,0.3,1.7,0.6c0.7,0.2,1.6,0.9,2.7,2c1.1,1.1,1.7,2.3,1.7,3.8c0.4-0.2,1.6-0.8,3.5-1.9c5-2.9,8.1-4.3,9.3-4.3
		c1.2,0,2.5,0.6,4,1.8c1.5,1.2,2.6,2.7,3.3,4.4c0.1-0.1,1.5-0.8,4.2-2.1c5.3-2.7,8.5-4.1,9.6-4.1c2.2,0,4.2,1.4,6.1,4.3
		c1.9,2.9,2.9,5.5,2.9,7.9v51.3c0,3.7,1.7,6,5,6.6v2.2l-11.1,6.2c-1.5-0.6-2.9-1.6-4.2-3c-1.3-1.4-1.9-2.7-1.9-3.9v-50
		c0-4.1-0.7-6.9-2-8.5c-1.3-1.6-3.7-2.5-7.2-2.6v52.9c0,3.7,1.7,6,5,6.6v2.2l-11.1,6.2c-1.5-0.6-2.9-1.6-4.2-3
		c-1.3-1.4-1.9-2.7-1.9-3.9v-50c0-4.3-0.6-7.2-1.9-8.8c-1.3-1.6-3.7-2.3-7.3-2.3v52.3c0,2.5,0.3,4.3,0.8,5.4
		c0.5,1.1,1.7,1.6,3.4,1.6v3.2l-20.9,8.8l-1.6-3.3c1.5,0,2.9-0.9,4.3-2.7C428.8,142.2,429.4,139.6,429.4,136.1z"/>
	<path class="st4" d="M508.5,135c1.1,1.1,2.2,1.7,3.5,1.7c1.3,0,2.7-0.5,4.1-1.5v-31.7c0-4.1-1.4-6.5-4.2-7v-2.2l10.3-5.8
		c1.5,0.6,2.9,1.6,4.2,3c1.3,1.4,1.9,2.7,1.9,3.9v34.6c0,2.2,0.5,4.2,1.4,5.8c1,1.6,2.1,2.4,3.6,2.4v2.2c-0.5,0.1-4.2,2.1-11.1,6.2
		c-1.6-0.7-3-1.7-4.2-3c-1.3-1.3-1.9-2.6-1.9-3.8l-12.7,6.8c-0.2-0.1-0.5-0.3-0.9-0.6s-1.1-0.7-2.1-1.5c-1-0.8-1.9-1.6-2.6-2.5
		c-2-2.2-3.1-4.8-3.1-7.6v-30.9c0-3.7-1.7-5.9-5-6.6v-2.2l11.1-6.2c1.5,0.6,2.9,1.6,4.2,3c1.3,1.4,1.9,2.7,1.9,3.9v35.4
		C506.9,132.4,507.4,133.8,508.5,135z"/>
	<path class="st4" d="M552.6,98.3c-0.7,0-1.3,0.3-1.8,1v28.2c0,5.2,2.2,8.5,6.7,9.7c2.3,0.5,5.1,0.8,8.3,0.8v3
		c-11.2,3.7-17.1,5.6-17.8,5.6c-2,0-4.1-1.4-6.2-4.3c-2.1-2.9-3.2-6.3-3.2-10.1V97.8c0-0.5,3.9-2.2,11.7-5
		c7.8-2.9,12.3-4.3,13.4-4.3c0.4,0,0.9,1,1.4,3c0.5,2,1.2,4.4,1.9,7.1c0.7,2.8,1.5,4.8,2.2,6.2c0.8,1.3,2.3,2,4.4,2v2
		c-1.5,0.7-4,1.9-7.6,3.6c-3.6,1.7-5.5,2.6-5.8,2.6c-1,0-2.3-2.8-3.9-8.3S553.6,98.3,552.6,98.3z"/>
	<path class="st4" d="M579.7,139.6V89.1c0-1.8-0.3-3.1-0.9-3.9c-0.6-0.8-1.7-1.2-3.2-1.2v-2.9c8.8-4.6,16.7-9,23.7-13.1l1.6,3.3
		c-0.7,0.3-1.6,1-2.9,2c-1.2,1-2.2,2-3.1,3c-2,2.6-3.1,5.5-3.1,8.8v8.7c7-3.6,11.1-5.4,12.2-5.4c2.2,0,4.2,1.4,6.2,4.1
		c2,2.7,3,5.7,3,9v30c0,3.7,1.7,6,5,6.6v2.2l-11.1,6.2c-1.5-0.6-2.9-1.6-4.2-3c-1.3-1.4-1.9-2.7-1.9-3.9V110
		c0-6.7-1.2-10.4-3.7-11.3c-1.2-0.4-3-0.6-5.5-0.6v33.4c0,4.1,1.4,6.5,4.2,7v2.2l-10.3,5.8c-1.5-0.6-2.9-1.6-4.2-3
		C580.4,142.1,579.7,140.8,579.7,139.6z"/>
	<path class="st4" d="M657.1,77.9c-0.7,0-1.3,0.3-1.8,1V121c0,2.9,0.2,5.2,0.5,6.9c0.3,1.7,1.1,3.5,2.2,5.2
		c2.2,3.3,7.4,4.9,15.4,4.9v3c-0.3,0-2.9,0.9-7.5,2.8c-4.7,1.9-7.5,2.8-8.6,2.8c-3.4,0-6.6-2-9.7-5.9c-3.1-3.9-4.6-8-4.6-12.4V77.4
		c0-0.5,3.9-2.2,11.7-5c7.8-2.9,12.3-4.3,13.4-4.3c0.4,0,0.9,1,1.4,3c0.5,2,1.2,4.4,1.9,7.1c0.7,2.8,1.5,4.8,2.2,6.2
		c0.8,1.3,2.3,2,4.4,2v2c-1.5,0.7-4,1.9-7.6,3.6c-3.6,1.7-5.5,2.6-5.8,2.6c-1,0-2.3-2.8-3.9-8.3C659.3,80.7,658,77.9,657.1,77.9z"/>
	<path class="st4" d="M715.8,101.9v28.9c0,2.5,0.4,4.3,1.2,5.3c0.8,1,2.1,1.7,3.8,2.1v2.2l-11.1,6.2c-1.5-0.6-2.9-1.6-4.2-3
		c-1.3-1.4-1.9-2.7-1.9-3.8l-12.7,6.8c-0.2-0.1-0.5-0.3-0.9-0.6c-0.4-0.2-1.1-0.7-2.1-1.5c-1-0.8-1.9-1.6-2.6-2.5
		c-2-2.2-3.1-4.8-3.1-7.6v-16.7c0-1.1,1.8-2.5,5.3-4.2c3.5-1.7,7.1-3.1,10.6-4.2l5.4-1.7c0-3.9-1-6.6-3.1-8.1c-2-1.5-6-2.3-11.8-2.3
		V94c10.5-3.7,16.5-5.6,17.7-5.6c2.2,0,4.4,1.5,6.4,4.4C714.8,95.7,715.8,98.7,715.8,101.9z M696,135c1.1,1.1,2.2,1.7,3.5,1.7
		c1.3,0,2.7-0.5,4.1-1.5v-23.1c-1.7,0.6-3,1.1-3.8,1.5c-0.9,0.4-1.8,1.1-2.7,1.9c-1.8,1.6-2.7,4.5-2.7,8.5v6.6
		C694.4,132.4,694.9,133.8,696,135z"/>
	<path class="st4" d="M738.2,77.8v12.1h5.2l-1,5h-4.2v36.5c0,4.1,1.4,6.5,4.2,7v2.2l-10.3,5.8c-1.5-0.6-2.9-1.6-4.2-3
		c-1.3-1.4-1.9-2.7-1.9-3.9V95h-4.2l1-4.3c2,0,4.5-1.4,7.4-4.1c2.9-2.8,4.6-5.7,5.2-8.8H738.2z"/>
	<path class="st4" d="M760.7,77.8v12.1h5.2l-1,5h-4.2v36.5c0,4.1,1.4,6.5,4.2,7v2.2l-10.3,5.8c-1.5-0.6-2.9-1.6-4.2-3
		c-1.3-1.4-1.9-2.7-1.9-3.9V95h-4.2l1-4.3c2,0,4.5-1.4,7.4-4.1c2.9-2.8,4.6-5.7,5.2-8.8H760.7z"/>
	<path class="st4" d="M783.1,75v56.4c0,4.1,1.4,6.5,4.2,7v2.2l-10.3,5.8c-1.5-0.6-2.9-1.6-4.2-3c-1.3-1.4-1.9-2.7-1.9-3.9V83.2
		c0-4.1-1.4-6.5-4.2-7v-2.2l10.3-5.8c1.5,0.6,2.9,1.6,4.2,3C782.5,72.5,783.1,73.8,783.1,75z"/>
	<path class="st4" d="M818.3,88.4c0.3,0,1.2,0.5,2.5,1.6c1.4,1.1,2.7,2.5,4.1,4.4c1.4,1.9,2,3.7,2,5.5V117c0,1.2-1.8,2.7-5.4,4.5
		c-3.6,1.8-7.1,3.2-10.5,4.3c-3.4,1.1-5.2,1.7-5.5,1.7c0,5.2,2.3,8.5,6.8,9.7c2.2,0.5,4.9,0.8,8.1,0.8v3
		c-11.2,3.7-17.1,5.6-17.9,5.6c-2,0-4.1-1.4-6.2-4.3c-2.1-2.9-3.2-6.3-3.2-10.1V97.8c0-0.5,3.9-2.2,11.6-5
		C812.7,89.8,817.2,88.4,818.3,88.4z M813.4,99.8c-0.9-1.3-2-2-3.4-2c-1.4,0-2.9,0.5-4.5,1.5v23.6c6.1-1.7,9.2-5.4,9.2-11v-7.2
		C814.7,102.7,814.3,101.1,813.4,99.8z"/>
</g>
</svg>
